<svg xmlns="http://www.w3.org/2000/svg" viewBox="0 0 264.83 512"><defs><style>.cls-1{fill:#707384;}.cls-2{fill:#63afdb;}.cls-3{fill:#468cbe;}.cls-4{fill:#464655;}.cls-5{fill:#ff6469;}.cls-6{fill:#00dccd;}.cls-7{fill:#ffdc69;}.cls-8{fill:#fff;}.cls-9{fill:#ffa055;}.cls-10{fill:#a0d778;}</style></defs><title>Recurso 3</title><g id="Capa_2" data-name="Capa 2"><g id="Layer_1" data-name="Layer 1"><path class="cls-1" d="M238.35,0H26.48A26.48,26.48,0,0,0,0,26.48v459A26.48,26.48,0,0,0,26.48,512H238.35a26.48,26.48,0,0,0,26.48-26.48v-459A26.48,26.48,0,0,0,238.35,0ZM97.1,35.31a8.83,8.83,0,0,1,8.83-8.83h53a8.83,8.83,0,0,1,8.83,8.83h0a8.83,8.83,0,0,1-8.83,8.83h-53a8.83,8.83,0,0,1-8.83-8.83ZM70.62,26.48a8.83,8.83,0,1,1-8.83,8.83A8.83,8.83,0,0,1,70.62,26.48Zm61.79,467.86a17.65,17.65,0,1,1,17.65-17.65A17.66,17.66,0,0,1,132.41,494.35Zm114.76-158.9V441.38H17.65V70.62H247.17V335.45Z"/><path class="cls-2" d="M17.65,335.45H88.28a8.83,8.83,0,0,1,17.66,0h17.65a8.83,8.83,0,0,1,17.66,0H158.9a8.83,8.83,0,0,1,17.66,0h70.62V70.62H17.65Zm158.9-220.69a8.83,8.83,0,0,1,8.83-8.83h35.31a8.83,8.83,0,0,1,8.83,8.83v35.31a8.83,8.83,0,0,1-8.83,8.83H185.38a8.83,8.83,0,0,1-8.83-8.83Zm0,70.62a8.83,8.83,0,0,1,8.83-8.83h35.31a8.83,8.83,0,0,1,8.83,8.83v35.31a8.83,8.83,0,0,1-8.83,8.83H185.38a8.83,8.83,0,0,1-8.83-8.83Zm0,70.62a8.83,8.83,0,0,1,8.83-8.83h35.31a8.83,8.83,0,0,1,8.83,8.83v35.31a8.83,8.83,0,0,1-8.83,8.83H185.38a8.83,8.83,0,0,1-8.83-8.83ZM105.93,114.76a8.83,8.83,0,0,1,8.83-8.83h35.31a8.83,8.83,0,0,1,8.83,8.83v35.31a8.83,8.83,0,0,1-8.83,8.83H114.76a8.83,8.83,0,0,1-8.83-8.83Zm0,70.62a8.83,8.83,0,0,1,8.83-8.83h35.31a8.83,8.83,0,0,1,8.83,8.83v35.31a8.83,8.83,0,0,1-8.83,8.83H114.76a8.83,8.83,0,0,1-8.83-8.83Zm0,70.62a8.83,8.83,0,0,1,8.83-8.83h35.31A8.83,8.83,0,0,1,158.9,256v35.31a8.83,8.83,0,0,1-8.83,8.83H114.76a8.83,8.83,0,0,1-8.83-8.83ZM35.31,114.76a8.83,8.83,0,0,1,8.83-8.83H79.45a8.83,8.83,0,0,1,8.83,8.83v35.31a8.83,8.83,0,0,1-8.83,8.83H44.14a8.83,8.83,0,0,1-8.83-8.83Zm0,70.62a8.83,8.83,0,0,1,8.83-8.83H79.45a8.83,8.83,0,0,1,8.83,8.83v35.31a8.83,8.83,0,0,1-8.83,8.83H44.14a8.83,8.83,0,0,1-8.83-8.83Zm0,70.62a8.83,8.83,0,0,1,8.83-8.83H79.45A8.83,8.83,0,0,1,88.28,256v35.31a8.83,8.83,0,0,1-8.83,8.83H44.14a8.83,8.83,0,0,1-8.83-8.83Z"/><path class="cls-3" d="M167.72,344.28a8.83,8.83,0,0,1-8.83-8.83H141.24a8.83,8.83,0,1,1-17.66,0H105.93a8.83,8.83,0,1,1-17.66,0H17.65V441.38H247.17V335.45H176.55A8.82,8.82,0,0,1,167.72,344.28ZM88.28,406.07a8.83,8.83,0,0,1-8.83,8.83H44.14a8.83,8.83,0,0,1-8.83-8.83V370.76a8.83,8.83,0,0,1,8.83-8.83H79.45a8.83,8.83,0,0,1,8.83,8.83Zm70.62,0a8.83,8.83,0,0,1-8.83,8.83H114.76a8.83,8.83,0,0,1-8.83-8.83V370.76a8.83,8.83,0,0,1,8.83-8.83h35.31a8.83,8.83,0,0,1,8.83,8.83Zm26.48-44.14h35.31a8.83,8.83,0,0,1,8.83,8.83v35.31a8.83,8.83,0,0,1-8.83,8.83H185.38a8.83,8.83,0,0,1-8.83-8.83V370.76A8.83,8.83,0,0,1,185.38,361.93Z"/><path class="cls-4" d="M105.93,44.14h53a8.83,8.83,0,0,0,8.83-8.83h0a8.83,8.83,0,0,0-8.83-8.83h-53a8.83,8.83,0,0,0-8.83,8.83h0A8.83,8.83,0,0,0,105.93,44.14Z"/><circle class="cls-4" cx="70.62" cy="35.31" r="8.83"/><circle class="cls-4" cx="132.41" cy="476.69" r="17.65"/><path class="cls-2" d="M150.07,361.93H114.76a8.83,8.83,0,0,0-8.83,8.83v35.31a8.83,8.83,0,0,0,8.83,8.83h35.31a8.83,8.83,0,0,0,8.83-8.83V370.76A8.83,8.83,0,0,0,150.07,361.93Zm-17.65,44.14a17.65,17.65,0,1,1,17.65-17.65A17.66,17.66,0,0,1,132.41,406.07Z"/><path class="cls-5" d="M176.55,406.07a8.83,8.83,0,0,0,8.83,8.83h35.31a8.83,8.83,0,0,0,8.83-8.83V370.76a8.83,8.83,0,0,0-8.83-8.83H185.38a8.83,8.83,0,0,0-8.83,8.83Z"/><path class="cls-6" d="M79.45,361.93H44.14a8.83,8.83,0,0,0-8.83,8.83v35.31a8.83,8.83,0,0,0,8.83,8.83H79.45a8.83,8.83,0,0,0,8.83-8.83V370.76A8.83,8.83,0,0,0,79.45,361.93Z"/><path class="cls-7" d="M114.76,300.14h35.31a8.83,8.83,0,0,0,8.83-8.83V256a8.83,8.83,0,0,0-8.83-8.83H114.76a8.83,8.83,0,0,0-8.83,8.83v35.31A8.83,8.83,0,0,0,114.76,300.14Z"/><path class="cls-8" d="M185.38,300.14h35.31a8.83,8.83,0,0,0,8.83-8.83V256a8.83,8.83,0,0,0-8.83-8.83H185.38a8.83,8.83,0,0,0-8.83,8.83v35.31A8.83,8.83,0,0,0,185.38,300.14Zm0-26.48a8.83,8.83,0,0,1,8.83-8.83h17.65a8.83,8.83,0,0,1,8.83,8.83h0a8.83,8.83,0,0,1-8.83,8.83H194.21a8.83,8.83,0,0,1-8.83-8.83Z"/><path class="cls-3" d="M44.14,300.14H79.45a8.83,8.83,0,0,0,8.83-8.83V256a8.83,8.83,0,0,0-8.83-8.83H44.14A8.83,8.83,0,0,0,35.31,256v35.31A8.83,8.83,0,0,0,44.14,300.14Zm0-26.48A8.83,8.83,0,0,1,53,264.83H70.62a8.83,8.83,0,0,1,8.83,8.83h0a8.83,8.83,0,0,1-8.83,8.83H53a8.83,8.83,0,0,1-8.83-8.83Z"/><path class="cls-4" d="M114.76,229.52h35.31a8.83,8.83,0,0,0,8.83-8.83V185.38a8.83,8.83,0,0,0-8.83-8.83H114.76a8.83,8.83,0,0,0-8.83,8.83v35.31A8.83,8.83,0,0,0,114.76,229.52Zm0-26.48a8.83,8.83,0,0,1,8.83-8.83h17.65a8.83,8.83,0,0,1,8.83,8.83h0a8.83,8.83,0,0,1-8.83,8.83H123.59a8.83,8.83,0,0,1-8.83-8.83Z"/><path class="cls-9" d="M185.38,229.52h35.31a8.83,8.83,0,0,0,8.83-8.83V185.38a8.83,8.83,0,0,0-8.83-8.83H185.38a8.83,8.83,0,0,0-8.83,8.83v35.31A8.83,8.83,0,0,0,185.38,229.52Z"/><path class="cls-10" d="M44.14,229.52H79.45a8.83,8.83,0,0,0,8.83-8.83V185.38a8.83,8.83,0,0,0-8.83-8.83H44.14a8.83,8.83,0,0,0-8.83,8.83v35.31A8.83,8.83,0,0,0,44.14,229.52Zm17.65-44.14A17.65,17.65,0,1,1,44.14,203,17.65,17.65,0,0,1,61.79,185.38Z"/><path class="cls-5" d="M114.76,158.9h35.31a8.83,8.83,0,0,0,8.83-8.83V114.76a8.83,8.83,0,0,0-8.83-8.83H114.76a8.83,8.83,0,0,0-8.83,8.83v35.31A8.83,8.83,0,0,0,114.76,158.9Z"/><path class="cls-6" d="M185.38,158.9h35.31a8.83,8.83,0,0,0,8.83-8.83V114.76a8.83,8.83,0,0,0-8.83-8.83H185.38a8.83,8.83,0,0,0-8.83,8.83v35.31A8.83,8.83,0,0,0,185.38,158.9ZM203,114.76a17.65,17.65,0,1,1-17.65,17.65A17.65,17.65,0,0,1,203,114.76Z"/><path class="cls-7" d="M44.14,158.9H79.45a8.83,8.83,0,0,0,8.83-8.83V114.76a8.83,8.83,0,0,0-8.83-8.83H44.14a8.83,8.83,0,0,0-8.83,8.83v35.31A8.83,8.83,0,0,0,44.14,158.9Z"/><circle class="cls-7" cx="61.79" cy="203.03" r="17.65"/><circle class="cls-7" cx="132.41" cy="388.41" r="17.65"/><circle class="cls-5" cx="203.04" cy="132.41" r="17.65"/><path class="cls-3" d="M123.59,211.86h17.65a8.83,8.83,0,0,0,8.83-8.83h0a8.83,8.83,0,0,0-8.83-8.83H123.59a8.83,8.83,0,0,0-8.83,8.83h0A8.83,8.83,0,0,0,123.59,211.86Z"/><path class="cls-5" d="M194.21,282.48h17.65a8.83,8.83,0,0,0,8.83-8.83h0a8.83,8.83,0,0,0-8.83-8.83H194.21a8.83,8.83,0,0,0-8.83,8.83h0A8.83,8.83,0,0,0,194.21,282.48Z"/><path class="cls-8" d="M53,282.48H70.62a8.83,8.83,0,0,0,8.83-8.83h0a8.83,8.83,0,0,0-8.83-8.83H53a8.83,8.83,0,0,0-8.83,8.83h0A8.83,8.83,0,0,0,53,282.48Z"/><circle class="cls-4" cx="97.1" cy="335.45" r="8.83"/><circle class="cls-8" cx="132.41" cy="335.45" r="8.83"/><circle class="cls-8" cx="167.72" cy="335.45" r="8.83"/></g></g></svg>